<svg xmlns="http://www.w3.org/2000/svg" xmlns:xlink="http://www.w3.org/1999/xlink" width="50" zoomAndPan="magnify" viewBox="0 0 37.5 45.749999" height="61" preserveAspectRatio="xMidYMid meet" version="1.0"><defs><g/><clipPath id="id1"><path d="M 6.65625 15.121094 L 13.40625 15.121094 L 13.40625 39.121094 L 6.65625 39.121094 Z M 6.65625 15.121094 " clip-rule="nonzero"/></clipPath><clipPath id="id2"><path d="M 6 14 L 30 14 L 30 30 L 6 30 Z M 6 14 " clip-rule="nonzero"/></clipPath><clipPath id="id3"><path d="M 8.453125 13.550781 L 30.789062 24.214844 L 27.882812 30.304688 L 5.546875 19.644531 Z M 8.453125 13.550781 " clip-rule="nonzero"/></clipPath><clipPath id="id4"><path d="M 23.828125 4.679688 L 30.578125 4.679688 L 30.578125 29.429688 L 23.828125 29.429688 Z M 23.828125 4.679688 " clip-rule="nonzero"/></clipPath></defs><g fill="#4962d4" fill-opacity="1"><g transform="translate(5.890952, 43.263332)"><g><path d="M 0.28125 -0.578125 C 0.1875 -0.691406 0.140625 -0.796875 0.140625 -0.890625 C 0.140625 -0.984375 0.21875 -1.109375 0.375 -1.265625 C 0.46875 -1.359375 0.566406 -1.40625 0.671875 -1.40625 C 0.773438 -1.40625 0.921875 -1.3125 1.109375 -1.125 C 1.160156 -1.0625 1.234375 -1 1.328125 -0.9375 C 1.429688 -0.882812 1.519531 -0.859375 1.59375 -0.859375 C 1.945312 -0.859375 2.125 -1 2.125 -1.28125 C 2.125 -1.363281 2.070312 -1.429688 1.96875 -1.484375 C 1.875 -1.546875 1.753906 -1.585938 1.609375 -1.609375 C 1.472656 -1.640625 1.320312 -1.679688 1.15625 -1.734375 C 1 -1.796875 0.847656 -1.863281 0.703125 -1.9375 C 0.566406 -2.019531 0.453125 -2.144531 0.359375 -2.3125 C 0.265625 -2.488281 0.21875 -2.695312 0.21875 -2.9375 C 0.21875 -3.257812 0.335938 -3.539062 0.578125 -3.78125 C 0.816406 -4.03125 1.148438 -4.15625 1.578125 -4.15625 C 1.796875 -4.15625 1.992188 -4.125 2.171875 -4.0625 C 2.359375 -4.007812 2.488281 -3.953125 2.5625 -3.890625 L 2.703125 -3.78125 C 2.816406 -3.675781 2.875 -3.585938 2.875 -3.515625 C 2.875 -3.441406 2.832031 -3.335938 2.75 -3.203125 C 2.625 -3.015625 2.492188 -2.921875 2.359375 -2.921875 C 2.273438 -2.921875 2.175781 -2.960938 2.0625 -3.046875 C 2.050781 -3.046875 2.03125 -3.0625 2 -3.09375 C 1.96875 -3.125 1.9375 -3.148438 1.90625 -3.171875 C 1.832031 -3.210938 1.734375 -3.234375 1.609375 -3.234375 C 1.492188 -3.234375 1.394531 -3.203125 1.3125 -3.140625 C 1.226562 -3.085938 1.1875 -3.007812 1.1875 -2.90625 C 1.1875 -2.8125 1.234375 -2.734375 1.328125 -2.671875 C 1.429688 -2.609375 1.550781 -2.5625 1.6875 -2.53125 C 1.832031 -2.507812 1.988281 -2.472656 2.15625 -2.421875 C 2.320312 -2.378906 2.472656 -2.328125 2.609375 -2.265625 C 2.753906 -2.203125 2.875 -2.085938 2.96875 -1.921875 C 3.0625 -1.753906 3.109375 -1.546875 3.109375 -1.296875 C 3.109375 -1.054688 3.0625 -0.84375 2.96875 -0.65625 C 2.875 -0.476562 2.75 -0.335938 2.59375 -0.234375 C 2.289062 -0.0351562 1.96875 0.0625 1.625 0.0625 C 1.445312 0.0625 1.28125 0.0390625 1.125 0 C 0.96875 -0.0507812 0.84375 -0.109375 0.75 -0.171875 C 0.550781 -0.285156 0.410156 -0.398438 0.328125 -0.515625 Z M 0.28125 -0.578125 "/></g></g></g><g fill="#4962d4" fill-opacity="1"><g transform="translate(9.139043, 43.263332)"><g><path d="M 0.140625 -1.46875 C 0.140625 -1.914062 0.296875 -2.28125 0.609375 -2.5625 C 0.921875 -2.851562 1.273438 -3 1.671875 -3 C 2.078125 -3 2.429688 -2.851562 2.734375 -2.5625 C 3.046875 -2.28125 3.203125 -1.914062 3.203125 -1.46875 C 3.203125 -1.164062 3.125 -0.894531 2.96875 -0.65625 C 2.8125 -0.414062 2.617188 -0.238281 2.390625 -0.125 C 2.160156 -0.0078125 1.921875 0.046875 1.671875 0.046875 C 1.429688 0.046875 1.191406 -0.0078125 0.953125 -0.125 C 0.722656 -0.25 0.53125 -0.425781 0.375 -0.65625 C 0.21875 -0.894531 0.140625 -1.164062 0.140625 -1.46875 Z M 1.296875 -1.0625 C 1.421875 -0.976562 1.546875 -0.9375 1.671875 -0.9375 C 1.796875 -0.9375 1.914062 -0.976562 2.03125 -1.0625 C 2.15625 -1.15625 2.21875 -1.289062 2.21875 -1.46875 C 2.21875 -1.65625 2.160156 -1.796875 2.046875 -1.890625 C 1.929688 -1.984375 1.804688 -2.03125 1.671875 -2.03125 C 1.535156 -2.03125 1.410156 -1.984375 1.296875 -1.890625 C 1.179688 -1.796875 1.125 -1.65625 1.125 -1.46875 C 1.125 -1.289062 1.179688 -1.15625 1.296875 -1.0625 Z M 1.296875 -1.0625 "/></g></g></g><g fill="#4962d4" fill-opacity="1"><g transform="translate(12.481851, 43.263332)"><g><path d="M 0.21875 -3.828125 C 0.21875 -3.910156 0.21875 -3.972656 0.21875 -4.015625 C 0.226562 -4.066406 0.25 -4.117188 0.28125 -4.171875 C 0.332031 -4.273438 0.476562 -4.328125 0.71875 -4.328125 C 0.9375 -4.328125 1.078125 -4.273438 1.140625 -4.171875 C 1.171875 -4.117188 1.1875 -4.066406 1.1875 -4.015625 C 1.195312 -3.972656 1.203125 -3.910156 1.203125 -3.828125 L 1.203125 -1.25 C 1.203125 -1.113281 1.210938 -1.023438 1.234375 -0.984375 C 1.253906 -0.953125 1.300781 -0.9375 1.375 -0.9375 C 1.457031 -0.9375 1.507812 -0.929688 1.53125 -0.921875 C 1.5625 -0.921875 1.59375 -0.90625 1.625 -0.875 C 1.695312 -0.832031 1.734375 -0.703125 1.734375 -0.484375 C 1.734375 -0.253906 1.695312 -0.113281 1.625 -0.0625 C 1.53125 0.0078125 1.300781 0.0234375 0.9375 -0.015625 C 0.644531 -0.0546875 0.457031 -0.15625 0.375 -0.3125 C 0.269531 -0.488281 0.21875 -0.773438 0.21875 -1.171875 Z M 0.21875 -3.828125 "/></g></g></g><g fill="#4962d4" fill-opacity="1"><g transform="translate(14.303679, 43.263332)"><g><path d="M 1.53125 -0.015625 C 1.15625 -0.015625 0.84375 -0.15625 0.59375 -0.4375 C 0.34375 -0.71875 0.21875 -1.066406 0.21875 -1.484375 L 0.21875 -2.453125 C 0.21875 -2.546875 0.21875 -2.609375 0.21875 -2.640625 C 0.226562 -2.679688 0.25 -2.734375 0.28125 -2.796875 C 0.332031 -2.890625 0.476562 -2.9375 0.71875 -2.9375 C 0.976562 -2.9375 1.128906 -2.867188 1.171875 -2.734375 C 1.191406 -2.671875 1.203125 -2.578125 1.203125 -2.453125 L 1.203125 -1.46875 C 1.203125 -1.320312 1.242188 -1.203125 1.328125 -1.109375 C 1.421875 -1.023438 1.539062 -0.984375 1.6875 -0.984375 C 1.832031 -0.984375 1.953125 -1.023438 2.046875 -1.109375 C 2.140625 -1.203125 2.1875 -1.320312 2.1875 -1.46875 L 2.1875 -2.453125 C 2.1875 -2.546875 2.1875 -2.613281 2.1875 -2.65625 C 2.195312 -2.695312 2.21875 -2.742188 2.25 -2.796875 C 2.289062 -2.890625 2.429688 -2.9375 2.671875 -2.9375 C 2.898438 -2.9375 3.039062 -2.890625 3.09375 -2.796875 C 3.125 -2.734375 3.140625 -2.679688 3.140625 -2.640625 C 3.148438 -2.597656 3.15625 -2.535156 3.15625 -2.453125 L 3.15625 -0.484375 C 3.15625 -0.398438 3.148438 -0.335938 3.140625 -0.296875 C 3.140625 -0.253906 3.125 -0.207031 3.09375 -0.15625 C 3.039062 -0.0507812 2.898438 0 2.671875 0 C 2.441406 0 2.300781 -0.046875 2.25 -0.140625 C 2.207031 -0.203125 2.1875 -0.28125 2.1875 -0.375 C 2.175781 -0.34375 2.144531 -0.300781 2.09375 -0.25 C 2.039062 -0.207031 1.988281 -0.171875 1.9375 -0.140625 C 1.8125 -0.0546875 1.675781 -0.015625 1.53125 -0.015625 Z M 1.53125 -0.015625 "/></g></g></g><g fill="#4962d4" fill-opacity="1"><g transform="translate(17.67991, 43.263332)"><g><path d="M 1.9375 -1.953125 L 1.5625 -1.96875 L 1.5625 -1.203125 C 1.5625 -1.097656 1.578125 -1.023438 1.609375 -0.984375 C 1.640625 -0.941406 1.695312 -0.921875 1.78125 -0.921875 C 1.875 -0.921875 1.941406 -0.914062 1.984375 -0.90625 C 2.035156 -0.90625 2.085938 -0.890625 2.140625 -0.859375 C 2.222656 -0.804688 2.265625 -0.679688 2.265625 -0.484375 C 2.265625 -0.253906 2.210938 -0.113281 2.109375 -0.0625 C 2.054688 -0.03125 2.007812 -0.0078125 1.96875 0 C 1.925781 0 1.863281 0 1.78125 0 C 1.394531 0 1.097656 -0.0859375 0.890625 -0.265625 C 0.691406 -0.441406 0.59375 -0.738281 0.59375 -1.15625 L 0.59375 -1.96875 C 0.519531 -1.957031 0.441406 -1.953125 0.359375 -1.953125 C 0.285156 -1.953125 0.21875 -1.984375 0.15625 -2.046875 C 0.101562 -2.109375 0.078125 -2.21875 0.078125 -2.375 C 0.078125 -2.53125 0.0859375 -2.640625 0.109375 -2.703125 C 0.128906 -2.773438 0.15625 -2.828125 0.1875 -2.859375 C 0.25 -2.898438 0.320312 -2.921875 0.40625 -2.921875 L 0.59375 -2.90625 L 0.59375 -3.484375 C 0.59375 -3.566406 0.59375 -3.628906 0.59375 -3.671875 C 0.601562 -3.710938 0.625 -3.753906 0.65625 -3.796875 C 0.707031 -3.890625 0.851562 -3.9375 1.09375 -3.9375 C 1.34375 -3.9375 1.492188 -3.867188 1.546875 -3.734375 C 1.554688 -3.671875 1.5625 -3.578125 1.5625 -3.453125 L 1.5625 -2.90625 C 1.726562 -2.914062 1.851562 -2.921875 1.9375 -2.921875 C 2.019531 -2.921875 2.082031 -2.914062 2.125 -2.90625 C 2.164062 -2.90625 2.21875 -2.890625 2.28125 -2.859375 C 2.375 -2.816406 2.421875 -2.675781 2.421875 -2.4375 C 2.421875 -2.207031 2.367188 -2.066406 2.265625 -2.015625 C 2.210938 -1.984375 2.164062 -1.960938 2.125 -1.953125 C 2.082031 -1.953125 2.019531 -1.953125 1.9375 -1.953125 Z M 1.9375 -1.953125 "/></g></g></g><g fill="#c80707" fill-opacity="1"><g transform="translate(20.174666, 43.263332)"><g><path d="M 0.21875 -2.453125 C 0.21875 -2.535156 0.21875 -2.597656 0.21875 -2.640625 C 0.226562 -2.679688 0.25 -2.726562 0.28125 -2.78125 C 0.332031 -2.882812 0.476562 -2.9375 0.71875 -2.9375 C 0.894531 -2.9375 1.019531 -2.90625 1.09375 -2.84375 C 1.15625 -2.789062 1.1875 -2.707031 1.1875 -2.59375 C 1.195312 -2.5625 1.203125 -2.507812 1.203125 -2.4375 L 1.203125 -0.484375 C 1.203125 -0.398438 1.195312 -0.335938 1.1875 -0.296875 C 1.1875 -0.253906 1.171875 -0.203125 1.140625 -0.140625 C 1.085938 -0.046875 0.941406 0 0.703125 0 C 0.472656 0 0.332031 -0.0507812 0.28125 -0.15625 C 0.25 -0.207031 0.226562 -0.253906 0.21875 -0.296875 C 0.21875 -0.335938 0.21875 -0.398438 0.21875 -0.484375 Z M 1.140625 -3.484375 C 1.109375 -3.429688 1.054688 -3.390625 0.984375 -3.359375 C 0.921875 -3.335938 0.828125 -3.328125 0.703125 -3.328125 C 0.585938 -3.328125 0.492188 -3.335938 0.421875 -3.359375 C 0.359375 -3.390625 0.3125 -3.429688 0.28125 -3.484375 C 0.25 -3.535156 0.226562 -3.582031 0.21875 -3.625 C 0.21875 -3.675781 0.21875 -3.742188 0.21875 -3.828125 C 0.21875 -3.910156 0.21875 -3.972656 0.21875 -4.015625 C 0.226562 -4.054688 0.25 -4.101562 0.28125 -4.15625 C 0.332031 -4.257812 0.476562 -4.3125 0.71875 -4.3125 C 0.945312 -4.3125 1.085938 -4.257812 1.140625 -4.15625 C 1.171875 -4.101562 1.1875 -4.054688 1.1875 -4.015625 C 1.195312 -3.972656 1.203125 -3.90625 1.203125 -3.8125 C 1.203125 -3.726562 1.195312 -3.664062 1.1875 -3.625 C 1.1875 -3.582031 1.171875 -3.535156 1.140625 -3.484375 Z M 1.140625 -3.484375 "/></g></g></g><g fill="#4962d4" fill-opacity="1"><g transform="translate(21.589255, 43.263332)"><g><path d="M 0.140625 -1.46875 C 0.140625 -1.914062 0.296875 -2.28125 0.609375 -2.5625 C 0.921875 -2.851562 1.273438 -3 1.671875 -3 C 2.078125 -3 2.429688 -2.851562 2.734375 -2.5625 C 3.046875 -2.28125 3.203125 -1.914062 3.203125 -1.46875 C 3.203125 -1.164062 3.125 -0.894531 2.96875 -0.65625 C 2.8125 -0.414062 2.617188 -0.238281 2.390625 -0.125 C 2.160156 -0.0078125 1.921875 0.046875 1.671875 0.046875 C 1.429688 0.046875 1.191406 -0.0078125 0.953125 -0.125 C 0.722656 -0.25 0.53125 -0.425781 0.375 -0.65625 C 0.21875 -0.894531 0.140625 -1.164062 0.140625 -1.46875 Z M 1.296875 -1.0625 C 1.421875 -0.976562 1.546875 -0.9375 1.671875 -0.9375 C 1.796875 -0.9375 1.914062 -0.976562 2.03125 -1.0625 C 2.15625 -1.15625 2.21875 -1.289062 2.21875 -1.46875 C 2.21875 -1.65625 2.160156 -1.796875 2.046875 -1.890625 C 1.929688 -1.984375 1.804688 -2.03125 1.671875 -2.03125 C 1.535156 -2.03125 1.410156 -1.984375 1.296875 -1.890625 C 1.179688 -1.796875 1.125 -1.65625 1.125 -1.46875 C 1.125 -1.289062 1.179688 -1.15625 1.296875 -1.0625 Z M 1.296875 -1.0625 "/></g></g></g><g fill="#4962d4" fill-opacity="1"><g transform="translate(24.932063, 43.263332)"><g><path d="M 1.859375 -2.9375 C 2.234375 -2.9375 2.539062 -2.796875 2.78125 -2.515625 C 3.03125 -2.234375 3.15625 -1.882812 3.15625 -1.46875 L 3.15625 -0.484375 C 3.15625 -0.398438 3.148438 -0.335938 3.140625 -0.296875 C 3.140625 -0.253906 3.125 -0.207031 3.09375 -0.15625 C 3.039062 -0.0507812 2.898438 0 2.671875 0 C 2.398438 0 2.242188 -0.0703125 2.203125 -0.21875 C 2.179688 -0.28125 2.171875 -0.375 2.171875 -0.5 L 2.171875 -1.484375 C 2.171875 -1.628906 2.125 -1.742188 2.03125 -1.828125 C 1.945312 -1.921875 1.832031 -1.96875 1.6875 -1.96875 C 1.539062 -1.96875 1.421875 -1.921875 1.328125 -1.828125 C 1.242188 -1.742188 1.203125 -1.628906 1.203125 -1.484375 L 1.203125 -0.484375 C 1.203125 -0.398438 1.195312 -0.335938 1.1875 -0.296875 C 1.1875 -0.253906 1.171875 -0.207031 1.140625 -0.15625 C 1.085938 -0.0507812 0.941406 0 0.703125 0 C 0.472656 0 0.332031 -0.0507812 0.28125 -0.15625 C 0.25 -0.207031 0.226562 -0.253906 0.21875 -0.296875 C 0.21875 -0.347656 0.21875 -0.414062 0.21875 -0.5 L 0.21875 -2.46875 C 0.21875 -2.550781 0.21875 -2.613281 0.21875 -2.65625 C 0.226562 -2.695312 0.25 -2.742188 0.28125 -2.796875 C 0.332031 -2.890625 0.476562 -2.9375 0.71875 -2.9375 C 0.9375 -2.9375 1.070312 -2.894531 1.125 -2.8125 C 1.164062 -2.75 1.1875 -2.671875 1.1875 -2.578125 C 1.195312 -2.609375 1.226562 -2.644531 1.28125 -2.6875 C 1.332031 -2.738281 1.382812 -2.78125 1.4375 -2.8125 C 1.5625 -2.894531 1.703125 -2.9375 1.859375 -2.9375 Z M 1.859375 -2.9375 "/></g></g></g><g fill="#4962d4" fill-opacity="1"><g transform="translate(28.308294, 43.263332)"><g><path d="M 0.28125 -0.578125 C 0.1875 -0.691406 0.140625 -0.796875 0.140625 -0.890625 C 0.140625 -0.984375 0.21875 -1.109375 0.375 -1.265625 C 0.46875 -1.359375 0.566406 -1.40625 0.671875 -1.40625 C 0.773438 -1.40625 0.921875 -1.3125 1.109375 -1.125 C 1.160156 -1.0625 1.234375 -1 1.328125 -0.9375 C 1.429688 -0.882812 1.519531 -0.859375 1.59375 -0.859375 C 1.945312 -0.859375 2.125 -1 2.125 -1.28125 C 2.125 -1.363281 2.070312 -1.429688 1.96875 -1.484375 C 1.875 -1.546875 1.753906 -1.585938 1.609375 -1.609375 C 1.472656 -1.640625 1.320312 -1.679688 1.15625 -1.734375 C 1 -1.796875 0.847656 -1.863281 0.703125 -1.9375 C 0.566406 -2.019531 0.453125 -2.144531 0.359375 -2.3125 C 0.265625 -2.488281 0.21875 -2.695312 0.21875 -2.9375 C 0.21875 -3.257812 0.335938 -3.539062 0.578125 -3.78125 C 0.816406 -4.03125 1.148438 -4.15625 1.578125 -4.15625 C 1.796875 -4.15625 1.992188 -4.125 2.171875 -4.0625 C 2.359375 -4.007812 2.488281 -3.953125 2.5625 -3.890625 L 2.703125 -3.78125 C 2.816406 -3.675781 2.875 -3.585938 2.875 -3.515625 C 2.875 -3.441406 2.832031 -3.335938 2.75 -3.203125 C 2.625 -3.015625 2.492188 -2.921875 2.359375 -2.921875 C 2.273438 -2.921875 2.175781 -2.960938 2.0625 -3.046875 C 2.050781 -3.046875 2.03125 -3.0625 2 -3.09375 C 1.96875 -3.125 1.9375 -3.148438 1.90625 -3.171875 C 1.832031 -3.210938 1.734375 -3.234375 1.609375 -3.234375 C 1.492188 -3.234375 1.394531 -3.203125 1.3125 -3.140625 C 1.226562 -3.085938 1.1875 -3.007812 1.1875 -2.90625 C 1.1875 -2.8125 1.234375 -2.734375 1.328125 -2.671875 C 1.429688 -2.609375 1.550781 -2.5625 1.6875 -2.53125 C 1.832031 -2.507812 1.988281 -2.472656 2.15625 -2.421875 C 2.320312 -2.378906 2.472656 -2.328125 2.609375 -2.265625 C 2.753906 -2.203125 2.875 -2.085938 2.96875 -1.921875 C 3.0625 -1.753906 3.109375 -1.546875 3.109375 -1.296875 C 3.109375 -1.054688 3.0625 -0.84375 2.96875 -0.65625 C 2.875 -0.476562 2.75 -0.335938 2.59375 -0.234375 C 2.289062 -0.0351562 1.96875 0.0625 1.625 0.0625 C 1.445312 0.0625 1.28125 0.0390625 1.125 0 C 0.96875 -0.0507812 0.84375 -0.109375 0.75 -0.171875 C 0.550781 -0.285156 0.410156 -0.398438 0.328125 -0.515625 Z M 0.28125 -0.578125 "/></g></g></g><g clip-path="url(#id1)"><path fill="#c80707" d="M 13.40625 35.730469 C 13.40625 37.601562 11.894531 39.117188 10.03125 39.117188 C 8.164062 39.117188 6.65625 37.601562 6.65625 35.730469 L 6.65625 18.515625 C 6.65625 16.644531 8.164062 15.128906 10.03125 15.128906 C 11.894531 15.128906 13.40625 16.644531 13.40625 18.515625 L 13.40625 35.730469 " fill-opacity="1" fill-rule="nonzero"/></g><g clip-path="url(#id2)"><g clip-path="url(#id3)"><path fill="#ffbd59" d="M 27.714844 22.746094 C 29.410156 23.554688 30.132812 25.574219 29.328125 27.257812 C 28.527344 28.9375 26.5 29.644531 24.804688 28.835938 L 8.621094 21.113281 C 6.925781 20.300781 6.203125 18.28125 7.007812 16.601562 C 7.808594 14.917969 9.835938 14.210938 11.53125 15.019531 L 27.714844 22.746094 " fill-opacity="1" fill-rule="nonzero"/></g></g><g clip-path="url(#id4)"><path fill="#5271ff" d="M 30.578125 25.933594 C 30.578125 27.863281 29.066406 29.429688 27.203125 29.429688 C 25.339844 29.429688 23.828125 27.863281 23.828125 25.933594 L 23.828125 8.175781 C 23.828125 6.246094 25.339844 4.679688 27.203125 4.679688 C 29.066406 4.679688 30.578125 6.246094 30.578125 8.175781 L 30.578125 25.933594 " fill-opacity="1" fill-rule="nonzero"/></g></svg>