<svg xmlns="http://www.w3.org/2000/svg" xmlns:xlink="http://www.w3.org/1999/xlink" width="50" zoomAndPan="magnify" viewBox="0 0 37.5 45.749999" height="61" preserveAspectRatio="xMidYMid meet" version="1.0"><defs><g/><clipPath id="id1"><path d="M 0 0.175781 L 37.007812 0.175781 L 37.007812 45.324219 L 0 45.324219 Z M 0 0.175781 " clip-rule="nonzero"/></clipPath><clipPath id="id2"><path d="M 4.441406 1.859375 L 13.265625 1.859375 L 13.265625 37.886719 L 4.441406 37.886719 Z M 4.441406 1.859375 " clip-rule="nonzero"/></clipPath><clipPath id="id3"><path d="M 4 1 L 34 1 L 34 38 L 4 38 Z M 4 1 " clip-rule="nonzero"/></clipPath><clipPath id="id4"><path d="M 9.5625 0.175781 L 35.613281 33.941406 L 29.207031 38.882812 L 3.160156 5.117188 Z M 9.5625 0.175781 " clip-rule="nonzero"/></clipPath><clipPath id="id5"><path d="M 26.105469 1.863281 L 34.195312 1.863281 L 34.195312 37.890625 L 26.105469 37.890625 Z M 26.105469 1.863281 " clip-rule="nonzero"/></clipPath><clipPath id="id6"><path d="M 26.109375 0.175781 L 34.199219 0.175781 L 34.199219 22.96875 L 26.109375 22.96875 Z M 26.109375 0.175781 " clip-rule="nonzero"/></clipPath></defs><g clip-path="url(#id1)"><path fill="#ffffff" d="M 0 0.175781 L 37.5 0.175781 L 37.5 53.425781 L 0 53.425781 Z M 0 0.175781 " fill-opacity="1" fill-rule="nonzero"/><path fill="#ffffff" d="M 0 0.175781 L 37.5 0.175781 L 37.5 45.925781 L 0 45.925781 Z M 0 0.175781 " fill-opacity="1" fill-rule="nonzero"/><path fill="#ffffff" d="M 0 0.175781 L 37.5 0.175781 L 37.5 45.925781 L 0 45.925781 Z M 0 0.175781 " fill-opacity="1" fill-rule="nonzero"/><path fill="#ffffff" d="M 0 0.175781 L 37.5 0.175781 L 37.5 45.925781 L 0 45.925781 Z M 0 0.175781 " fill-opacity="1" fill-rule="nonzero"/></g><g clip-path="url(#id2)"><path fill="#c80707" d="M 13.265625 32.988281 C 13.265625 35.683594 11.289062 37.871094 8.855469 37.871094 C 6.417969 37.871094 4.441406 35.683594 4.441406 32.988281 L 4.441406 6.757812 C 4.441406 4.0625 6.417969 1.875 8.855469 1.875 C 11.289062 1.875 13.265625 4.0625 13.265625 6.757812 L 13.265625 32.988281 " fill-opacity="1" fill-rule="nonzero"/></g><g clip-path="url(#id3)"><g clip-path="url(#id4)"><path fill="#c80707" d="M 32.953125 30.496094 C 34.417969 32.394531 34.171875 35.042969 32.40625 36.40625 C 30.636719 37.769531 28.015625 37.335938 26.546875 35.433594 L 5.820312 8.5625 C 4.355469 6.664062 4.597656 4.019531 6.367188 2.652344 C 8.136719 1.289062 10.757812 1.722656 12.222656 3.625 L 32.953125 30.496094 " fill-opacity="1" fill-rule="nonzero"/></g></g><g clip-path="url(#id5)"><path fill="#4962d4" d="M 34.195312 33.742188 C 34.195312 36.03125 32.382812 37.886719 30.148438 37.886719 C 27.917969 37.886719 26.105469 36.03125 26.105469 33.742188 L 26.105469 6.011719 C 26.105469 3.722656 27.917969 1.867188 30.148438 1.867188 C 32.382812 1.867188 34.195312 3.722656 34.195312 6.011719 L 34.195312 33.742188 " fill-opacity="1" fill-rule="nonzero"/></g><g clip-path="url(#id6)"><path fill="#4962d4" d="M 34.199219 22.964844 L 34.199219 2.515625 L 30.152344 0.179688 L 26.109375 2.515625 L 26.109375 22.964844 L 30.152344 20.628906 L 34.199219 22.964844 " fill-opacity="1" fill-rule="nonzero"/></g><g fill="#4962d4" fill-opacity="1"><g transform="translate(1.281594, 44.160998)"><g><path d="M 0.390625 -0.78125 C 0.253906 -0.9375 0.1875 -1.078125 0.1875 -1.203125 C 0.1875 -1.335938 0.296875 -1.515625 0.515625 -1.734375 C 0.640625 -1.847656 0.769531 -1.90625 0.90625 -1.90625 C 1.050781 -1.90625 1.253906 -1.78125 1.515625 -1.53125 C 1.578125 -1.445312 1.675781 -1.363281 1.8125 -1.28125 C 1.945312 -1.207031 2.066406 -1.171875 2.171875 -1.171875 C 2.640625 -1.171875 2.875 -1.363281 2.875 -1.75 C 2.875 -1.863281 2.8125 -1.957031 2.6875 -2.03125 C 2.5625 -2.113281 2.398438 -2.171875 2.203125 -2.203125 C 2.015625 -2.242188 1.804688 -2.300781 1.578125 -2.375 C 1.359375 -2.457031 1.148438 -2.550781 0.953125 -2.65625 C 0.765625 -2.757812 0.601562 -2.925781 0.46875 -3.15625 C 0.34375 -3.382812 0.28125 -3.660156 0.28125 -3.984375 C 0.28125 -4.429688 0.445312 -4.816406 0.78125 -5.140625 C 1.113281 -5.472656 1.566406 -5.640625 2.140625 -5.640625 C 2.441406 -5.640625 2.71875 -5.597656 2.96875 -5.515625 C 3.21875 -5.441406 3.390625 -5.367188 3.484375 -5.296875 L 3.671875 -5.140625 C 3.828125 -4.992188 3.90625 -4.867188 3.90625 -4.765625 C 3.90625 -4.671875 3.847656 -4.535156 3.734375 -4.359375 C 3.554688 -4.109375 3.378906 -3.984375 3.203125 -3.984375 C 3.085938 -3.984375 2.953125 -4.03125 2.796875 -4.125 C 2.785156 -4.132812 2.757812 -4.160156 2.71875 -4.203125 C 2.675781 -4.242188 2.632812 -4.273438 2.59375 -4.296875 C 2.488281 -4.367188 2.351562 -4.40625 2.1875 -4.40625 C 2.03125 -4.40625 1.894531 -4.363281 1.78125 -4.28125 C 1.675781 -4.207031 1.625 -4.097656 1.625 -3.953125 C 1.625 -3.816406 1.6875 -3.707031 1.8125 -3.625 C 1.945312 -3.539062 2.109375 -3.484375 2.296875 -3.453125 C 2.484375 -3.421875 2.691406 -3.375 2.921875 -3.3125 C 3.148438 -3.25 3.359375 -3.171875 3.546875 -3.078125 C 3.742188 -2.984375 3.90625 -2.820312 4.03125 -2.59375 C 4.164062 -2.375 4.234375 -2.097656 4.234375 -1.765625 C 4.234375 -1.441406 4.164062 -1.15625 4.03125 -0.90625 C 3.894531 -0.65625 3.722656 -0.460938 3.515625 -0.328125 C 3.109375 -0.0546875 2.671875 0.078125 2.203125 0.078125 C 1.960938 0.078125 1.738281 0.0507812 1.53125 0 C 1.320312 -0.0625 1.148438 -0.140625 1.015625 -0.234375 C 0.742188 -0.390625 0.554688 -0.546875 0.453125 -0.703125 Z M 0.390625 -0.78125 "/></g></g></g><g fill="#4962d4" fill-opacity="1"><g transform="translate(5.69567, 44.160998)"><g><path d="M 0.1875 -2 C 0.1875 -2.601562 0.398438 -3.097656 0.828125 -3.484375 C 1.253906 -3.878906 1.738281 -4.078125 2.28125 -4.078125 C 2.820312 -4.078125 3.300781 -3.878906 3.71875 -3.484375 C 4.144531 -3.097656 4.359375 -2.601562 4.359375 -2 C 4.359375 -1.582031 4.25 -1.207031 4.03125 -0.875 C 3.8125 -0.550781 3.546875 -0.3125 3.234375 -0.15625 C 2.929688 -0.0078125 2.609375 0.0625 2.265625 0.0625 C 1.929688 0.0625 1.609375 -0.015625 1.296875 -0.171875 C 0.984375 -0.335938 0.71875 -0.582031 0.5 -0.90625 C 0.289062 -1.226562 0.1875 -1.59375 0.1875 -2 Z M 1.765625 -1.453125 C 1.929688 -1.328125 2.097656 -1.265625 2.265625 -1.265625 C 2.429688 -1.265625 2.597656 -1.328125 2.765625 -1.453125 C 2.929688 -1.578125 3.015625 -1.765625 3.015625 -2.015625 C 3.015625 -2.265625 2.9375 -2.445312 2.78125 -2.5625 C 2.625 -2.6875 2.453125 -2.75 2.265625 -2.75 C 2.085938 -2.75 1.921875 -2.6875 1.765625 -2.5625 C 1.609375 -2.4375 1.53125 -2.25 1.53125 -2 C 1.53125 -1.757812 1.609375 -1.578125 1.765625 -1.453125 Z M 1.765625 -1.453125 "/></g></g></g><g fill="#4962d4" fill-opacity="1"><g transform="translate(10.238463, 44.160998)"><g><path d="M 0.296875 -5.203125 C 0.296875 -5.316406 0.300781 -5.40625 0.3125 -5.46875 C 0.320312 -5.53125 0.34375 -5.597656 0.375 -5.671875 C 0.445312 -5.804688 0.644531 -5.875 0.96875 -5.875 C 1.28125 -5.875 1.472656 -5.804688 1.546875 -5.671875 C 1.585938 -5.597656 1.609375 -5.53125 1.609375 -5.46875 C 1.617188 -5.40625 1.625 -5.316406 1.625 -5.203125 L 1.625 -1.6875 C 1.625 -1.507812 1.640625 -1.394531 1.671875 -1.34375 C 1.703125 -1.289062 1.769531 -1.265625 1.875 -1.265625 C 1.976562 -1.265625 2.046875 -1.257812 2.078125 -1.25 C 2.117188 -1.25 2.164062 -1.234375 2.21875 -1.203125 C 2.3125 -1.128906 2.359375 -0.945312 2.359375 -0.65625 C 2.359375 -0.34375 2.3125 -0.148438 2.21875 -0.078125 C 2.082031 0.015625 1.765625 0.03125 1.265625 -0.03125 C 0.878906 -0.0820312 0.628906 -0.210938 0.515625 -0.421875 C 0.367188 -0.660156 0.296875 -1.050781 0.296875 -1.59375 Z M 0.296875 -5.203125 "/></g></g></g><g fill="#4962d4" fill-opacity="1"><g transform="translate(12.714283, 44.160998)"><g><path d="M 2.078125 -0.015625 C 1.566406 -0.015625 1.140625 -0.207031 0.796875 -0.59375 C 0.460938 -0.976562 0.296875 -1.453125 0.296875 -2.015625 L 0.296875 -3.328125 C 0.296875 -3.453125 0.300781 -3.539062 0.3125 -3.59375 C 0.320312 -3.65625 0.34375 -3.722656 0.375 -3.796875 C 0.445312 -3.929688 0.644531 -4 0.96875 -4 C 1.320312 -4 1.53125 -3.90625 1.59375 -3.71875 C 1.625 -3.632812 1.640625 -3.503906 1.640625 -3.328125 L 1.640625 -2 C 1.640625 -1.789062 1.695312 -1.628906 1.8125 -1.515625 C 1.9375 -1.398438 2.097656 -1.34375 2.296875 -1.34375 C 2.492188 -1.34375 2.65625 -1.398438 2.78125 -1.515625 C 2.90625 -1.640625 2.96875 -1.800781 2.96875 -2 L 2.96875 -3.34375 C 2.96875 -3.457031 2.96875 -3.539062 2.96875 -3.59375 C 2.976562 -3.65625 3.003906 -3.722656 3.046875 -3.796875 C 3.109375 -3.929688 3.300781 -4 3.625 -4 C 3.945312 -4 4.144531 -3.929688 4.21875 -3.796875 C 4.25 -3.722656 4.269531 -3.65625 4.28125 -3.59375 C 4.289062 -3.539062 4.296875 -3.453125 4.296875 -3.328125 L 4.296875 -0.65625 C 4.296875 -0.539062 4.289062 -0.453125 4.28125 -0.390625 C 4.269531 -0.335938 4.242188 -0.273438 4.203125 -0.203125 C 4.128906 -0.0664062 3.9375 0 3.625 0 C 3.3125 0 3.117188 -0.0625 3.046875 -0.1875 C 3.003906 -0.269531 2.984375 -0.375 2.984375 -0.5 C 2.960938 -0.46875 2.914062 -0.414062 2.84375 -0.34375 C 2.769531 -0.28125 2.703125 -0.226562 2.640625 -0.1875 C 2.460938 -0.0703125 2.273438 -0.015625 2.078125 -0.015625 Z M 2.078125 -0.015625 "/></g></g></g><g fill="#4962d4" fill-opacity="1"><g transform="translate(17.302498, 44.160998)"><g><path d="M 2.625 -2.65625 L 2.125 -2.6875 L 2.125 -1.640625 C 2.125 -1.503906 2.144531 -1.40625 2.1875 -1.34375 C 2.238281 -1.28125 2.320312 -1.25 2.4375 -1.25 C 2.550781 -1.25 2.640625 -1.242188 2.703125 -1.234375 C 2.765625 -1.234375 2.832031 -1.210938 2.90625 -1.171875 C 3.019531 -1.097656 3.078125 -0.925781 3.078125 -0.65625 C 3.078125 -0.34375 3.007812 -0.148438 2.875 -0.078125 C 2.800781 -0.0351562 2.734375 -0.0078125 2.671875 0 C 2.609375 0 2.523438 0 2.421875 0 C 1.890625 0 1.488281 -0.117188 1.21875 -0.359375 C 0.945312 -0.597656 0.8125 -1 0.8125 -1.5625 L 0.8125 -2.6875 C 0.71875 -2.664062 0.613281 -2.65625 0.5 -2.65625 C 0.382812 -2.65625 0.289062 -2.695312 0.21875 -2.78125 C 0.144531 -2.875 0.109375 -3.019531 0.109375 -3.21875 C 0.109375 -3.425781 0.117188 -3.578125 0.140625 -3.671875 C 0.171875 -3.765625 0.207031 -3.832031 0.25 -3.875 C 0.332031 -3.945312 0.4375 -3.984375 0.5625 -3.984375 L 0.8125 -3.953125 L 0.8125 -4.734375 C 0.8125 -4.847656 0.8125 -4.929688 0.8125 -4.984375 C 0.820312 -5.035156 0.847656 -5.097656 0.890625 -5.171875 C 0.960938 -5.296875 1.160156 -5.359375 1.484375 -5.359375 C 1.828125 -5.359375 2.03125 -5.265625 2.09375 -5.078125 C 2.113281 -4.992188 2.125 -4.863281 2.125 -4.6875 L 2.125 -3.953125 C 2.351562 -3.972656 2.519531 -3.984375 2.625 -3.984375 C 2.738281 -3.984375 2.828125 -3.976562 2.890625 -3.96875 C 2.953125 -3.957031 3.019531 -3.929688 3.09375 -3.890625 C 3.21875 -3.828125 3.28125 -3.632812 3.28125 -3.3125 C 3.28125 -2.988281 3.210938 -2.796875 3.078125 -2.734375 C 3.003906 -2.691406 2.9375 -2.664062 2.875 -2.65625 C 2.820312 -2.65625 2.738281 -2.65625 2.625 -2.65625 Z M 2.625 -2.65625 "/></g></g></g><g fill="#c80707" fill-opacity="1"><g transform="translate(20.692811, 44.160998)"><g><path d="M 0.296875 -3.328125 C 0.296875 -3.441406 0.300781 -3.523438 0.3125 -3.578125 C 0.320312 -3.640625 0.34375 -3.710938 0.375 -3.796875 C 0.445312 -3.921875 0.644531 -3.984375 0.96875 -3.984375 C 1.207031 -3.984375 1.378906 -3.941406 1.484375 -3.859375 C 1.566406 -3.785156 1.613281 -3.675781 1.625 -3.53125 C 1.625 -3.476562 1.625 -3.40625 1.625 -3.3125 L 1.625 -0.65625 C 1.625 -0.539062 1.617188 -0.453125 1.609375 -0.390625 C 1.609375 -0.335938 1.585938 -0.273438 1.546875 -0.203125 C 1.484375 -0.0664062 1.289062 0 0.96875 0 C 0.644531 0 0.445312 -0.0664062 0.375 -0.203125 C 0.34375 -0.273438 0.320312 -0.335938 0.3125 -0.390625 C 0.300781 -0.453125 0.296875 -0.546875 0.296875 -0.671875 Z M 1.546875 -4.734375 C 1.515625 -4.660156 1.445312 -4.609375 1.34375 -4.578125 C 1.25 -4.546875 1.125 -4.53125 0.96875 -4.53125 C 0.8125 -4.53125 0.679688 -4.546875 0.578125 -4.578125 C 0.484375 -4.609375 0.414062 -4.660156 0.375 -4.734375 C 0.34375 -4.804688 0.320312 -4.875 0.3125 -4.9375 C 0.300781 -5 0.296875 -5.085938 0.296875 -5.203125 C 0.296875 -5.316406 0.300781 -5.398438 0.3125 -5.453125 C 0.320312 -5.515625 0.34375 -5.582031 0.375 -5.65625 C 0.445312 -5.789062 0.644531 -5.859375 0.96875 -5.859375 C 1.289062 -5.859375 1.484375 -5.789062 1.546875 -5.65625 C 1.585938 -5.582031 1.609375 -5.515625 1.609375 -5.453125 C 1.617188 -5.390625 1.625 -5.300781 1.625 -5.1875 C 1.625 -5.070312 1.617188 -4.984375 1.609375 -4.921875 C 1.609375 -4.867188 1.585938 -4.804688 1.546875 -4.734375 Z M 1.546875 -4.734375 "/></g></g></g><g fill="#4962d4" fill-opacity="1"><g transform="translate(22.615201, 44.160998)"><g><path d="M 0.1875 -2 C 0.1875 -2.601562 0.398438 -3.097656 0.828125 -3.484375 C 1.253906 -3.878906 1.738281 -4.078125 2.28125 -4.078125 C 2.820312 -4.078125 3.300781 -3.878906 3.71875 -3.484375 C 4.144531 -3.097656 4.359375 -2.601562 4.359375 -2 C 4.359375 -1.582031 4.25 -1.207031 4.03125 -0.875 C 3.8125 -0.550781 3.546875 -0.3125 3.234375 -0.15625 C 2.929688 -0.0078125 2.609375 0.0625 2.265625 0.0625 C 1.929688 0.0625 1.609375 -0.015625 1.296875 -0.171875 C 0.984375 -0.335938 0.71875 -0.582031 0.5 -0.90625 C 0.289062 -1.226562 0.1875 -1.59375 0.1875 -2 Z M 1.765625 -1.453125 C 1.929688 -1.328125 2.097656 -1.265625 2.265625 -1.265625 C 2.429688 -1.265625 2.597656 -1.328125 2.765625 -1.453125 C 2.929688 -1.578125 3.015625 -1.765625 3.015625 -2.015625 C 3.015625 -2.265625 2.9375 -2.445312 2.78125 -2.5625 C 2.625 -2.6875 2.453125 -2.75 2.265625 -2.75 C 2.085938 -2.75 1.921875 -2.6875 1.765625 -2.5625 C 1.609375 -2.4375 1.53125 -2.25 1.53125 -2 C 1.53125 -1.757812 1.609375 -1.578125 1.765625 -1.453125 Z M 1.765625 -1.453125 "/></g></g></g><g fill="#4962d4" fill-opacity="1"><g transform="translate(27.157995, 44.160998)"><g><path d="M 2.53125 -4 C 3.03125 -4 3.445312 -3.800781 3.78125 -3.40625 C 4.125 -3.019531 4.296875 -2.550781 4.296875 -2 L 4.296875 -0.671875 C 4.296875 -0.554688 4.289062 -0.46875 4.28125 -0.40625 C 4.269531 -0.34375 4.25 -0.28125 4.21875 -0.21875 C 4.144531 -0.0703125 3.945312 0 3.625 0 C 3.257812 0 3.050781 -0.09375 3 -0.28125 C 2.96875 -0.375 2.953125 -0.503906 2.953125 -0.671875 L 2.953125 -2.015625 C 2.953125 -2.210938 2.890625 -2.367188 2.765625 -2.484375 C 2.648438 -2.609375 2.492188 -2.671875 2.296875 -2.671875 C 2.097656 -2.671875 1.9375 -2.609375 1.8125 -2.484375 C 1.6875 -2.359375 1.625 -2.203125 1.625 -2.015625 L 1.625 -0.671875 C 1.625 -0.554688 1.617188 -0.46875 1.609375 -0.40625 C 1.609375 -0.34375 1.585938 -0.28125 1.546875 -0.21875 C 1.484375 -0.0703125 1.289062 0 0.96875 0 C 0.644531 0 0.445312 -0.0703125 0.375 -0.21875 C 0.34375 -0.289062 0.320312 -0.351562 0.3125 -0.40625 C 0.300781 -0.46875 0.296875 -0.554688 0.296875 -0.671875 L 0.296875 -3.359375 C 0.296875 -3.472656 0.300781 -3.554688 0.3125 -3.609375 C 0.320312 -3.671875 0.347656 -3.734375 0.390625 -3.796875 C 0.460938 -3.929688 0.65625 -4 0.96875 -4 C 1.28125 -4 1.46875 -3.9375 1.53125 -3.8125 C 1.582031 -3.726562 1.609375 -3.628906 1.609375 -3.515625 C 1.628906 -3.546875 1.675781 -3.59375 1.75 -3.65625 C 1.820312 -3.726562 1.890625 -3.78125 1.953125 -3.8125 C 2.128906 -3.9375 2.320312 -4 2.53125 -4 Z M 2.53125 -4 "/></g></g></g><g fill="#4962d4" fill-opacity="1"><g transform="translate(31.746211, 44.160998)"><g><path d="M 0.390625 -0.78125 C 0.253906 -0.9375 0.1875 -1.078125 0.1875 -1.203125 C 0.1875 -1.335938 0.296875 -1.515625 0.515625 -1.734375 C 0.640625 -1.847656 0.769531 -1.90625 0.90625 -1.90625 C 1.050781 -1.90625 1.253906 -1.78125 1.515625 -1.53125 C 1.578125 -1.445312 1.675781 -1.363281 1.8125 -1.28125 C 1.945312 -1.207031 2.066406 -1.171875 2.171875 -1.171875 C 2.640625 -1.171875 2.875 -1.363281 2.875 -1.75 C 2.875 -1.863281 2.8125 -1.957031 2.6875 -2.03125 C 2.5625 -2.113281 2.398438 -2.171875 2.203125 -2.203125 C 2.015625 -2.242188 1.804688 -2.300781 1.578125 -2.375 C 1.359375 -2.457031 1.148438 -2.550781 0.953125 -2.65625 C 0.765625 -2.757812 0.601562 -2.925781 0.46875 -3.15625 C 0.34375 -3.382812 0.28125 -3.660156 0.28125 -3.984375 C 0.28125 -4.429688 0.445312 -4.816406 0.78125 -5.140625 C 1.113281 -5.472656 1.566406 -5.640625 2.140625 -5.640625 C 2.441406 -5.640625 2.71875 -5.597656 2.96875 -5.515625 C 3.21875 -5.441406 3.390625 -5.367188 3.484375 -5.296875 L 3.671875 -5.140625 C 3.828125 -4.992188 3.90625 -4.867188 3.90625 -4.765625 C 3.90625 -4.671875 3.847656 -4.535156 3.734375 -4.359375 C 3.554688 -4.109375 3.378906 -3.984375 3.203125 -3.984375 C 3.085938 -3.984375 2.953125 -4.03125 2.796875 -4.125 C 2.785156 -4.132812 2.757812 -4.160156 2.71875 -4.203125 C 2.675781 -4.242188 2.632812 -4.273438 2.59375 -4.296875 C 2.488281 -4.367188 2.351562 -4.40625 2.1875 -4.40625 C 2.03125 -4.40625 1.894531 -4.363281 1.78125 -4.28125 C 1.675781 -4.207031 1.625 -4.097656 1.625 -3.953125 C 1.625 -3.816406 1.6875 -3.707031 1.8125 -3.625 C 1.945312 -3.539062 2.109375 -3.484375 2.296875 -3.453125 C 2.484375 -3.421875 2.691406 -3.375 2.921875 -3.3125 C 3.148438 -3.25 3.359375 -3.171875 3.546875 -3.078125 C 3.742188 -2.984375 3.90625 -2.820312 4.03125 -2.59375 C 4.164062 -2.375 4.234375 -2.097656 4.234375 -1.765625 C 4.234375 -1.441406 4.164062 -1.15625 4.03125 -0.90625 C 3.894531 -0.65625 3.722656 -0.460938 3.515625 -0.328125 C 3.109375 -0.0546875 2.671875 0.078125 2.203125 0.078125 C 1.960938 0.078125 1.738281 0.0507812 1.53125 0 C 1.320312 -0.0625 1.148438 -0.140625 1.015625 -0.234375 C 0.742188 -0.390625 0.554688 -0.546875 0.453125 -0.703125 Z M 0.390625 -0.78125 "/></g></g></g></svg>