<svg xmlns="http://www.w3.org/2000/svg" xmlns:xlink="http://www.w3.org/1999/xlink" width="180" zoomAndPan="magnify" viewBox="0 0 135 135.000003" height="180" preserveAspectRatio="xMidYMid meet" version="1.0"><defs><g/><clipPath id="id1"><path d="M 0.496094 0 L 134.503906 0 L 134.503906 134.007812 L 0.496094 134.007812 Z M 0.496094 0 " clip-rule="nonzero"/></clipPath><clipPath id="id2"><path d="M 4.996094 46.9375 L 13.929688 46.9375 L 13.929688 83.417969 L 4.996094 83.417969 Z M 4.996094 46.9375 " clip-rule="nonzero"/></clipPath><clipPath id="id3"><path d="M 5 46 L 35 46 L 35 83 L 5 83 Z M 5 46 " clip-rule="nonzero"/></clipPath><clipPath id="id4"><path d="M 10.179688 45.234375 L 36.554688 79.421875 L 30.070312 84.425781 L 3.695312 50.238281 Z M 10.179688 45.234375 " clip-rule="nonzero"/></clipPath><clipPath id="id5"><path d="M 26.929688 46.941406 L 35.121094 46.941406 L 35.121094 83.421875 L 26.929688 83.421875 Z M 26.929688 46.941406 " clip-rule="nonzero"/></clipPath><clipPath id="id6"><path d="M 26.933594 45.234375 L 35.121094 45.234375 L 35.121094 68.3125 L 26.933594 68.3125 Z M 26.933594 45.234375 " clip-rule="nonzero"/></clipPath></defs><g clip-path="url(#id1)"><path fill="#ffffff" d="M 0.496094 0 L 134.503906 0 L 134.503906 141.453125 L 0.496094 141.453125 Z M 0.496094 0 " fill-opacity="1" fill-rule="nonzero"/><path fill="#ffffff" d="M 0.496094 0 L 134.503906 0 L 134.503906 134.007812 L 0.496094 134.007812 Z M 0.496094 0 " fill-opacity="1" fill-rule="nonzero"/><path fill="#ffffff" d="M 0.496094 0 L 134.503906 0 L 134.503906 134.007812 L 0.496094 134.007812 Z M 0.496094 0 " fill-opacity="1" fill-rule="nonzero"/><path fill="#ffffff" d="M 0.496094 0 L 134.503906 0 L 134.503906 134.007812 L 0.496094 134.007812 Z M 0.496094 0 " fill-opacity="1" fill-rule="nonzero"/></g><g clip-path="url(#id2)"><path fill="#c80707" d="M 13.929688 78.457031 C 13.929688 81.1875 11.929688 83.398438 9.460938 83.398438 C 6.996094 83.398438 4.996094 81.1875 4.996094 78.457031 L 4.996094 51.898438 C 4.996094 49.167969 6.996094 46.957031 9.460938 46.957031 C 11.929688 46.957031 13.929688 49.167969 13.929688 51.898438 L 13.929688 78.457031 " fill-opacity="1" fill-rule="nonzero"/></g><g clip-path="url(#id3)"><g clip-path="url(#id4)"><path fill="#c80707" d="M 33.863281 75.933594 C 35.347656 77.855469 35.097656 80.535156 33.308594 81.917969 C 31.515625 83.300781 28.863281 82.859375 27.378906 80.933594 L 6.390625 53.726562 C 4.90625 51.804688 5.152344 49.125 6.945312 47.742188 C 8.734375 46.359375 11.390625 46.800781 12.875 48.726562 L 33.863281 75.933594 " fill-opacity="1" fill-rule="nonzero"/></g></g><g clip-path="url(#id5)"><path fill="#4962d4" d="M 35.121094 79.21875 C 35.121094 81.539062 33.285156 83.417969 31.023438 83.417969 C 28.761719 83.417969 26.929688 81.539062 26.929688 79.21875 L 26.929688 51.144531 C 26.929688 48.824219 28.761719 46.945312 31.023438 46.945312 C 33.285156 46.945312 35.121094 48.824219 35.121094 51.144531 L 35.121094 79.21875 " fill-opacity="1" fill-rule="nonzero"/></g><g clip-path="url(#id6)"><path fill="#4962d4" d="M 35.121094 68.308594 L 35.121094 47.601562 L 31.027344 45.238281 L 26.933594 47.601562 L 26.933594 68.308594 L 31.027344 65.945312 L 35.121094 68.308594 " fill-opacity="1" fill-rule="nonzero"/></g><g fill="#4962d4" fill-opacity="1"><g transform="translate(1.793998, 89.77023)"><g><path d="M 0.390625 -0.796875 C 0.253906 -0.953125 0.1875 -1.09375 0.1875 -1.21875 C 0.1875 -1.351562 0.296875 -1.53125 0.515625 -1.75 C 0.648438 -1.875 0.785156 -1.9375 0.921875 -1.9375 C 1.066406 -1.9375 1.269531 -1.804688 1.53125 -1.546875 C 1.601562 -1.460938 1.703125 -1.378906 1.828125 -1.296875 C 1.960938 -1.222656 2.085938 -1.1875 2.203125 -1.1875 C 2.679688 -1.1875 2.921875 -1.378906 2.921875 -1.765625 C 2.921875 -1.878906 2.851562 -1.972656 2.71875 -2.046875 C 2.59375 -2.128906 2.429688 -2.1875 2.234375 -2.21875 C 2.035156 -2.257812 1.820312 -2.320312 1.59375 -2.40625 C 1.375 -2.488281 1.164062 -2.582031 0.96875 -2.6875 C 0.78125 -2.789062 0.617188 -2.957031 0.484375 -3.1875 C 0.359375 -3.425781 0.296875 -3.707031 0.296875 -4.03125 C 0.296875 -4.476562 0.460938 -4.867188 0.796875 -5.203125 C 1.128906 -5.546875 1.582031 -5.71875 2.15625 -5.71875 C 2.46875 -5.71875 2.75 -5.675781 3 -5.59375 C 3.257812 -5.519531 3.4375 -5.441406 3.53125 -5.359375 L 3.71875 -5.203125 C 3.875 -5.054688 3.953125 -4.929688 3.953125 -4.828125 C 3.953125 -4.734375 3.894531 -4.59375 3.78125 -4.40625 C 3.601562 -4.15625 3.421875 -4.03125 3.234375 -4.03125 C 3.128906 -4.03125 3 -4.082031 2.84375 -4.1875 C 2.820312 -4.195312 2.789062 -4.21875 2.75 -4.25 C 2.707031 -4.289062 2.664062 -4.328125 2.625 -4.359375 C 2.519531 -4.421875 2.382812 -4.453125 2.21875 -4.453125 C 2.050781 -4.453125 1.910156 -4.410156 1.796875 -4.328125 C 1.691406 -4.253906 1.640625 -4.144531 1.640625 -4 C 1.640625 -3.863281 1.703125 -3.75 1.828125 -3.65625 C 1.960938 -3.570312 2.125 -3.515625 2.3125 -3.484375 C 2.507812 -3.453125 2.722656 -3.40625 2.953125 -3.34375 C 3.191406 -3.28125 3.40625 -3.203125 3.59375 -3.109375 C 3.789062 -3.023438 3.953125 -2.867188 4.078125 -2.640625 C 4.210938 -2.410156 4.28125 -2.128906 4.28125 -1.796875 C 4.28125 -1.460938 4.210938 -1.164062 4.078125 -0.90625 C 3.941406 -0.65625 3.769531 -0.460938 3.5625 -0.328125 C 3.144531 -0.0546875 2.703125 0.078125 2.234375 0.078125 C 1.992188 0.078125 1.765625 0.0507812 1.546875 0 C 1.335938 -0.0625 1.164062 -0.140625 1.03125 -0.234375 C 0.757812 -0.390625 0.566406 -0.546875 0.453125 -0.703125 Z M 0.390625 -0.796875 "/></g></g></g><g fill="#4962d4" fill-opacity="1"><g transform="translate(6.263465, 89.77023)"><g><path d="M 0.1875 -2.015625 C 0.1875 -2.628906 0.398438 -3.132812 0.828125 -3.53125 C 1.265625 -3.9375 1.757812 -4.140625 2.3125 -4.140625 C 2.863281 -4.140625 3.347656 -3.941406 3.765625 -3.546875 C 4.191406 -3.148438 4.40625 -2.644531 4.40625 -2.03125 C 4.40625 -1.601562 4.296875 -1.222656 4.078125 -0.890625 C 3.859375 -0.566406 3.59375 -0.328125 3.28125 -0.171875 C 2.96875 -0.015625 2.640625 0.0625 2.296875 0.0625 C 1.960938 0.0625 1.632812 -0.015625 1.3125 -0.171875 C 1 -0.335938 0.734375 -0.582031 0.515625 -0.90625 C 0.296875 -1.238281 0.1875 -1.609375 0.1875 -2.015625 Z M 1.796875 -1.46875 C 1.960938 -1.34375 2.128906 -1.28125 2.296875 -1.28125 C 2.460938 -1.28125 2.628906 -1.34375 2.796875 -1.46875 C 2.960938 -1.601562 3.046875 -1.796875 3.046875 -2.046875 C 3.046875 -2.296875 2.96875 -2.476562 2.8125 -2.59375 C 2.65625 -2.71875 2.484375 -2.78125 2.296875 -2.78125 C 2.117188 -2.78125 1.945312 -2.71875 1.78125 -2.59375 C 1.625 -2.46875 1.546875 -2.28125 1.546875 -2.03125 C 1.546875 -1.78125 1.628906 -1.59375 1.796875 -1.46875 Z M 1.796875 -1.46875 "/></g></g></g><g fill="#4962d4" fill-opacity="1"><g transform="translate(10.863265, 89.77023)"><g><path d="M 0.3125 -5.265625 C 0.3125 -5.390625 0.3125 -5.476562 0.3125 -5.53125 C 0.320312 -5.59375 0.347656 -5.660156 0.390625 -5.734375 C 0.453125 -5.878906 0.648438 -5.953125 0.984375 -5.953125 C 1.296875 -5.953125 1.488281 -5.878906 1.5625 -5.734375 C 1.601562 -5.660156 1.628906 -5.59375 1.640625 -5.53125 C 1.648438 -5.46875 1.65625 -5.378906 1.65625 -5.265625 L 1.65625 -1.703125 C 1.65625 -1.523438 1.664062 -1.410156 1.6875 -1.359375 C 1.71875 -1.304688 1.785156 -1.28125 1.890625 -1.28125 C 2.003906 -1.28125 2.078125 -1.273438 2.109375 -1.265625 C 2.140625 -1.265625 2.179688 -1.25 2.234375 -1.21875 C 2.335938 -1.144531 2.390625 -0.960938 2.390625 -0.671875 C 2.390625 -0.347656 2.335938 -0.148438 2.234375 -0.078125 C 2.109375 0.015625 1.789062 0.03125 1.28125 -0.03125 C 0.894531 -0.0820312 0.640625 -0.210938 0.515625 -0.421875 C 0.378906 -0.671875 0.3125 -1.070312 0.3125 -1.625 Z M 0.3125 -5.265625 "/></g></g></g><g fill="#4962d4" fill-opacity="1"><g transform="translate(13.370152, 89.77023)"><g><path d="M 2.109375 -0.015625 C 1.585938 -0.015625 1.15625 -0.207031 0.8125 -0.59375 C 0.476562 -0.988281 0.3125 -1.46875 0.3125 -2.03125 L 0.3125 -3.375 C 0.3125 -3.5 0.3125 -3.585938 0.3125 -3.640625 C 0.320312 -3.703125 0.347656 -3.769531 0.390625 -3.84375 C 0.453125 -3.976562 0.648438 -4.046875 0.984375 -4.046875 C 1.335938 -4.046875 1.546875 -3.953125 1.609375 -3.765625 C 1.640625 -3.679688 1.65625 -3.550781 1.65625 -3.375 L 1.65625 -2.03125 C 1.65625 -1.8125 1.710938 -1.644531 1.828125 -1.53125 C 1.953125 -1.414062 2.113281 -1.359375 2.3125 -1.359375 C 2.519531 -1.359375 2.6875 -1.414062 2.8125 -1.53125 C 2.9375 -1.65625 3 -1.820312 3 -2.03125 L 3 -3.390625 C 3 -3.503906 3 -3.585938 3 -3.640625 C 3.007812 -3.703125 3.035156 -3.769531 3.078125 -3.84375 C 3.148438 -3.976562 3.347656 -4.046875 3.671875 -4.046875 C 3.992188 -4.046875 4.191406 -3.976562 4.265625 -3.84375 C 4.296875 -3.769531 4.316406 -3.703125 4.328125 -3.640625 C 4.335938 -3.578125 4.34375 -3.488281 4.34375 -3.375 L 4.34375 -0.65625 C 4.34375 -0.539062 4.335938 -0.453125 4.328125 -0.390625 C 4.316406 -0.335938 4.296875 -0.273438 4.265625 -0.203125 C 4.179688 -0.0664062 3.984375 0 3.671875 0 C 3.359375 0 3.164062 -0.0625 3.09375 -0.1875 C 3.039062 -0.28125 3.015625 -0.382812 3.015625 -0.5 C 2.992188 -0.46875 2.945312 -0.414062 2.875 -0.34375 C 2.800781 -0.28125 2.734375 -0.226562 2.671875 -0.1875 C 2.492188 -0.0703125 2.304688 -0.015625 2.109375 -0.015625 Z M 2.109375 -0.015625 "/></g></g></g><g fill="#4962d4" fill-opacity="1"><g transform="translate(18.015944, 89.77023)"><g><path d="M 2.65625 -2.6875 L 2.15625 -2.71875 L 2.15625 -1.65625 C 2.15625 -1.519531 2.175781 -1.421875 2.21875 -1.359375 C 2.257812 -1.296875 2.335938 -1.265625 2.453125 -1.265625 C 2.578125 -1.265625 2.671875 -1.257812 2.734375 -1.25 C 2.804688 -1.25 2.878906 -1.226562 2.953125 -1.1875 C 3.066406 -1.113281 3.125 -0.941406 3.125 -0.671875 C 3.125 -0.347656 3.050781 -0.148438 2.90625 -0.078125 C 2.832031 -0.0351562 2.765625 -0.0078125 2.703125 0 C 2.640625 0 2.554688 0 2.453125 0 C 1.921875 0 1.515625 -0.117188 1.234375 -0.359375 C 0.960938 -0.597656 0.828125 -1.003906 0.828125 -1.578125 L 0.828125 -2.71875 C 0.722656 -2.695312 0.613281 -2.6875 0.5 -2.6875 C 0.394531 -2.6875 0.300781 -2.726562 0.21875 -2.8125 C 0.144531 -2.90625 0.109375 -3.054688 0.109375 -3.265625 C 0.109375 -3.472656 0.117188 -3.625 0.140625 -3.71875 C 0.171875 -3.8125 0.210938 -3.878906 0.265625 -3.921875 C 0.347656 -3.992188 0.445312 -4.03125 0.5625 -4.03125 L 0.828125 -4 L 0.828125 -4.78125 C 0.828125 -4.90625 0.828125 -4.992188 0.828125 -5.046875 C 0.835938 -5.097656 0.863281 -5.160156 0.90625 -5.234375 C 0.96875 -5.359375 1.164062 -5.421875 1.5 -5.421875 C 1.84375 -5.421875 2.050781 -5.328125 2.125 -5.140625 C 2.144531 -5.054688 2.15625 -4.925781 2.15625 -4.75 L 2.15625 -4 C 2.382812 -4.019531 2.554688 -4.03125 2.671875 -4.03125 C 2.785156 -4.03125 2.867188 -4.023438 2.921875 -4.015625 C 2.984375 -4.003906 3.050781 -3.976562 3.125 -3.9375 C 3.257812 -3.875 3.328125 -3.679688 3.328125 -3.359375 C 3.328125 -3.035156 3.257812 -2.835938 3.125 -2.765625 C 3.039062 -2.722656 2.96875 -2.695312 2.90625 -2.6875 C 2.851562 -2.6875 2.769531 -2.6875 2.65625 -2.6875 Z M 2.65625 -2.6875 "/></g></g></g><g fill="#c80707" fill-opacity="1"><g transform="translate(21.4488, 89.77023)"><g><path d="M 0.3125 -3.375 C 0.3125 -3.488281 0.3125 -3.570312 0.3125 -3.625 C 0.320312 -3.6875 0.347656 -3.753906 0.390625 -3.828125 C 0.453125 -3.960938 0.648438 -4.03125 0.984375 -4.03125 C 1.222656 -4.03125 1.394531 -3.988281 1.5 -3.90625 C 1.59375 -3.832031 1.640625 -3.722656 1.640625 -3.578125 C 1.648438 -3.523438 1.65625 -3.453125 1.65625 -3.359375 L 1.65625 -0.671875 C 1.65625 -0.546875 1.648438 -0.453125 1.640625 -0.390625 C 1.628906 -0.335938 1.601562 -0.273438 1.5625 -0.203125 C 1.5 -0.0664062 1.300781 0 0.96875 0 C 0.644531 0 0.453125 -0.0664062 0.390625 -0.203125 C 0.347656 -0.285156 0.320312 -0.351562 0.3125 -0.40625 C 0.3125 -0.457031 0.3125 -0.546875 0.3125 -0.671875 Z M 1.5625 -4.796875 C 1.53125 -4.722656 1.460938 -4.671875 1.359375 -4.640625 C 1.265625 -4.609375 1.132812 -4.59375 0.96875 -4.59375 C 0.8125 -4.59375 0.679688 -4.609375 0.578125 -4.640625 C 0.484375 -4.671875 0.414062 -4.722656 0.375 -4.796875 C 0.34375 -4.867188 0.320312 -4.9375 0.3125 -5 C 0.3125 -5.0625 0.3125 -5.148438 0.3125 -5.265625 C 0.3125 -5.378906 0.3125 -5.460938 0.3125 -5.515625 C 0.320312 -5.578125 0.347656 -5.644531 0.390625 -5.71875 C 0.453125 -5.863281 0.648438 -5.9375 0.984375 -5.9375 C 1.304688 -5.9375 1.5 -5.863281 1.5625 -5.71875 C 1.601562 -5.644531 1.628906 -5.578125 1.640625 -5.515625 C 1.648438 -5.460938 1.65625 -5.375 1.65625 -5.25 C 1.65625 -5.132812 1.648438 -5.046875 1.640625 -4.984375 C 1.628906 -4.929688 1.601562 -4.867188 1.5625 -4.796875 Z M 1.5625 -4.796875 "/></g></g></g><g fill="#4962d4" fill-opacity="1"><g transform="translate(23.395314, 89.77023)"><g><path d="M 0.1875 -2.015625 C 0.1875 -2.628906 0.398438 -3.132812 0.828125 -3.53125 C 1.265625 -3.9375 1.757812 -4.140625 2.3125 -4.140625 C 2.863281 -4.140625 3.347656 -3.941406 3.765625 -3.546875 C 4.191406 -3.148438 4.40625 -2.644531 4.40625 -2.03125 C 4.40625 -1.601562 4.296875 -1.222656 4.078125 -0.890625 C 3.859375 -0.566406 3.59375 -0.328125 3.28125 -0.171875 C 2.96875 -0.015625 2.640625 0.0625 2.296875 0.0625 C 1.960938 0.0625 1.632812 -0.015625 1.3125 -0.171875 C 1 -0.335938 0.734375 -0.582031 0.515625 -0.90625 C 0.296875 -1.238281 0.1875 -1.609375 0.1875 -2.015625 Z M 1.796875 -1.46875 C 1.960938 -1.34375 2.128906 -1.28125 2.296875 -1.28125 C 2.460938 -1.28125 2.628906 -1.34375 2.796875 -1.46875 C 2.960938 -1.601562 3.046875 -1.796875 3.046875 -2.046875 C 3.046875 -2.296875 2.96875 -2.476562 2.8125 -2.59375 C 2.65625 -2.71875 2.484375 -2.78125 2.296875 -2.78125 C 2.117188 -2.78125 1.945312 -2.71875 1.78125 -2.59375 C 1.625 -2.46875 1.546875 -2.28125 1.546875 -2.03125 C 1.546875 -1.78125 1.628906 -1.59375 1.796875 -1.46875 Z M 1.796875 -1.46875 "/></g></g></g><g fill="#4962d4" fill-opacity="1"><g transform="translate(27.995114, 89.77023)"><g><path d="M 2.5625 -4.046875 C 3.070312 -4.046875 3.492188 -3.847656 3.828125 -3.453125 C 4.171875 -3.066406 4.34375 -2.59375 4.34375 -2.03125 L 4.34375 -0.671875 C 4.34375 -0.554688 4.335938 -0.46875 4.328125 -0.40625 C 4.316406 -0.351562 4.296875 -0.289062 4.265625 -0.21875 C 4.191406 -0.0703125 3.992188 0 3.671875 0 C 3.304688 0 3.09375 -0.0976562 3.03125 -0.296875 C 3 -0.378906 2.984375 -0.507812 2.984375 -0.6875 L 2.984375 -2.03125 C 2.984375 -2.238281 2.921875 -2.398438 2.796875 -2.515625 C 2.679688 -2.640625 2.523438 -2.703125 2.328125 -2.703125 C 2.128906 -2.703125 1.96875 -2.640625 1.84375 -2.515625 C 1.71875 -2.390625 1.65625 -2.226562 1.65625 -2.03125 L 1.65625 -0.671875 C 1.65625 -0.554688 1.648438 -0.46875 1.640625 -0.40625 C 1.628906 -0.351562 1.601562 -0.289062 1.5625 -0.21875 C 1.5 -0.0703125 1.300781 0 0.96875 0 C 0.644531 0 0.453125 -0.0703125 0.390625 -0.21875 C 0.347656 -0.289062 0.320312 -0.351562 0.3125 -0.40625 C 0.3125 -0.46875 0.3125 -0.5625 0.3125 -0.6875 L 0.3125 -3.40625 C 0.3125 -3.507812 0.3125 -3.59375 0.3125 -3.65625 C 0.320312 -3.71875 0.347656 -3.78125 0.390625 -3.84375 C 0.460938 -3.976562 0.660156 -4.046875 0.984375 -4.046875 C 1.296875 -4.046875 1.488281 -3.984375 1.5625 -3.859375 C 1.613281 -3.773438 1.640625 -3.671875 1.640625 -3.546875 C 1.660156 -3.585938 1.703125 -3.640625 1.765625 -3.703125 C 1.835938 -3.773438 1.910156 -3.828125 1.984375 -3.859375 C 2.148438 -3.984375 2.34375 -4.046875 2.5625 -4.046875 Z M 2.5625 -4.046875 "/></g></g></g><g fill="#4962d4" fill-opacity="1"><g transform="translate(32.640905, 89.77023)"><g><path d="M 0.390625 -0.796875 C 0.253906 -0.953125 0.1875 -1.09375 0.1875 -1.21875 C 0.1875 -1.351562 0.296875 -1.53125 0.515625 -1.75 C 0.648438 -1.875 0.785156 -1.9375 0.921875 -1.9375 C 1.066406 -1.9375 1.269531 -1.804688 1.53125 -1.546875 C 1.601562 -1.460938 1.703125 -1.378906 1.828125 -1.296875 C 1.960938 -1.222656 2.085938 -1.1875 2.203125 -1.1875 C 2.679688 -1.1875 2.921875 -1.378906 2.921875 -1.765625 C 2.921875 -1.878906 2.851562 -1.972656 2.71875 -2.046875 C 2.59375 -2.128906 2.429688 -2.1875 2.234375 -2.21875 C 2.035156 -2.257812 1.820312 -2.320312 1.59375 -2.40625 C 1.375 -2.488281 1.164062 -2.582031 0.96875 -2.6875 C 0.78125 -2.789062 0.617188 -2.957031 0.484375 -3.1875 C 0.359375 -3.425781 0.296875 -3.707031 0.296875 -4.03125 C 0.296875 -4.476562 0.460938 -4.867188 0.796875 -5.203125 C 1.128906 -5.546875 1.582031 -5.71875 2.15625 -5.71875 C 2.46875 -5.71875 2.75 -5.675781 3 -5.59375 C 3.257812 -5.519531 3.4375 -5.441406 3.53125 -5.359375 L 3.71875 -5.203125 C 3.875 -5.054688 3.953125 -4.929688 3.953125 -4.828125 C 3.953125 -4.734375 3.894531 -4.59375 3.78125 -4.40625 C 3.601562 -4.15625 3.421875 -4.03125 3.234375 -4.03125 C 3.128906 -4.03125 3 -4.082031 2.84375 -4.1875 C 2.820312 -4.195312 2.789062 -4.21875 2.75 -4.25 C 2.707031 -4.289062 2.664062 -4.328125 2.625 -4.359375 C 2.519531 -4.421875 2.382812 -4.453125 2.21875 -4.453125 C 2.050781 -4.453125 1.910156 -4.410156 1.796875 -4.328125 C 1.691406 -4.253906 1.640625 -4.144531 1.640625 -4 C 1.640625 -3.863281 1.703125 -3.75 1.828125 -3.65625 C 1.960938 -3.570312 2.125 -3.515625 2.3125 -3.484375 C 2.507812 -3.453125 2.722656 -3.40625 2.953125 -3.34375 C 3.191406 -3.28125 3.40625 -3.203125 3.59375 -3.109375 C 3.789062 -3.023438 3.953125 -2.867188 4.078125 -2.640625 C 4.210938 -2.410156 4.28125 -2.128906 4.28125 -1.796875 C 4.28125 -1.460938 4.210938 -1.164062 4.078125 -0.90625 C 3.941406 -0.65625 3.769531 -0.460938 3.5625 -0.328125 C 3.144531 -0.0546875 2.703125 0.078125 2.234375 0.078125 C 1.992188 0.078125 1.765625 0.0507812 1.546875 0 C 1.335938 -0.0625 1.164062 -0.140625 1.03125 -0.234375 C 0.757812 -0.390625 0.566406 -0.546875 0.453125 -0.703125 Z M 0.390625 -0.796875 "/></g></g></g></svg>